<?xml version="1.0" standalone="no"?>
<!DOCTYPE svg PUBLIC "-//W3C//DTD SVG 20010904//EN"
 "http://www.w3.org/TR/2001/REC-SVG-20010904/DTD/svg10.dtd">
<svg version="1.0" xmlns="http://www.w3.org/2000/svg"
 width="1024.000000pt" height="1024.000000pt" viewBox="0 0 1024.000000 1024.000000"
 preserveAspectRatio="xMidYMid meet">
<metadata>
Created by potrace 1.16, written by Peter Selinger 2001-2019
</metadata>
<g transform="translate(0.000000,1024.000000) scale(0.100000,-0.100000)"
fill="#ffffff" stroke="none">
<path d="M3620 10225 c0 -11 -11 -15 -39 -15 -23 0 -44 -6 -52 -16 -12 -15
-54 -37 -72 -38 -16 -2 -142 -131 -139 -144 2 -7 -4 -15 -12 -18 -8 -3 -12
-12 -9 -20 3 -7 -2 -16 -10 -20 -9 -3 -13 -12 -10 -20 3 -7 -2 -17 -11 -20
-11 -4 -14 -13 -10 -29 3 -14 0 -24 -8 -28 -20 -7 -19 -254 1 -266 8 -5 11
-16 7 -29 -5 -13 -1 -22 10 -26 11 -4 14 -13 10 -30 -4 -18 0 -28 19 -40 14
-9 25 -22 24 -29 -3 -17 149 -169 161 -162 6 4 13 0 16 -9 3 -8 11 -13 19 -10
7 3 15 -2 18 -11 5 -11 14 -14 32 -9 18 4 27 2 31 -10 5 -13 16 -15 60 -10 41
5 55 3 59 -7 4 -12 26 -14 105 -11 l100 4 0 -886 c0 -781 -2 -886 -15 -886 -8
0 -15 3 -15 8 0 9 -49 32 -70 32 -9 0 -21 5 -28 12 -7 7 -30 11 -52 9 -29 -2
-42 2 -46 13 -9 24 -169 23 -178 0 -5 -13 -15 -15 -40 -11 -25 4 -36 1 -40
-10 -5 -11 -15 -14 -41 -9 -26 5 -37 3 -41 -8 -3 -8 -12 -12 -19 -10 -7 3 -19
-4 -25 -16 -10 -19 -49 -42 -75 -45 -14 -1 -201 -193 -197 -203 1 -4 -35 -45
-81 -89 -45 -45 -81 -85 -80 -90 2 -5 -38 -50 -90 -100 -51 -50 -91 -95 -90
-100 2 -5 -34 -46 -80 -90 -45 -45 -81 -85 -80 -90 2 -5 -34 -46 -80 -90 -45
-45 -81 -85 -80 -90 2 -5 -34 -46 -80 -90 -45 -45 -81 -85 -80 -90 2 -5 -34
-46 -80 -90 -45 -45 -81 -85 -80 -90 2 -5 -34 -46 -80 -90 -45 -45 -81 -85
-80 -90 2 -5 -29 -41 -70 -80 -40 -39 -71 -75 -69 -81 1 -5 -12 -22 -30 -37
-18 -15 -33 -33 -33 -39 -2 -24 -25 -66 -44 -77 -10 -7 -17 -18 -14 -26 3 -7
-2 -16 -11 -19 -10 -4 -14 -13 -11 -23 6 -20 -21 -81 -36 -81 -5 0 -7 -11 -3
-25 4 -17 1 -27 -9 -31 -11 -4 -14 -15 -10 -40 4 -25 2 -35 -10 -40 -13 -5
-15 -17 -10 -70 5 -53 3 -65 -11 -70 -23 -9 -23 -129 0 -138 14 -6 16 -18 11
-80 -4 -62 -3 -76 10 -80 12 -5 14 -15 10 -40 -4 -25 -1 -36 10 -40 10 -4 13
-14 9 -30 -4 -17 -1 -26 10 -30 11 -4 14 -13 10 -31 -4 -14 -2 -25 3 -25 15 0
42 -61 36 -81 -3 -10 1 -19 11 -23 11 -4 14 -13 10 -31 -4 -14 -2 -25 3 -25
15 0 42 -62 35 -82 -3 -10 -1 -18 5 -18 15 0 42 -61 35 -82 -3 -10 -1 -18 5
-18 15 0 42 -61 35 -82 -3 -10 -1 -18 5 -18 15 0 42 -61 35 -82 -3 -10 -1 -18
5 -18 15 0 42 -61 36 -81 -3 -10 1 -19 11 -23 11 -4 14 -13 10 -31 -4 -14 -2
-25 3 -25 15 0 42 -62 35 -82 -3 -10 -1 -18 5 -18 15 0 42 -61 35 -82 -3 -10
-1 -18 5 -18 15 0 42 -61 35 -82 -3 -10 -1 -18 5 -18 15 0 42 -61 35 -82 -3
-10 -1 -18 5 -18 15 0 42 -61 35 -82 -3 -10 -1 -18 5 -18 15 0 42 -61 36 -81
-3 -10 1 -19 11 -23 11 -4 14 -13 10 -31 -4 -14 -2 -25 3 -25 15 0 42 -62 35
-82 -3 -10 -1 -18 5 -18 15 0 42 -61 35 -82 -3 -10 -1 -18 5 -18 15 0 42 -61
35 -82 -3 -10 -1 -18 5 -18 15 0 42 -61 35 -82 -3 -10 -1 -18 5 -18 15 0 42
-61 36 -81 -3 -10 1 -19 11 -23 9 -4 14 -13 10 -21 -3 -8 -1 -15 3 -15 12 0
62 -100 56 -110 -3 -5 2 -11 11 -14 8 -3 14 -12 12 -19 -2 -8 12 -26 30 -42
18 -15 31 -33 29 -39 -2 -6 7 -19 20 -29 13 -10 23 -24 21 -30 -2 -15 147
-164 160 -159 5 1 23 -12 39 -31 16 -18 34 -32 40 -30 6 2 19 -6 29 -19 11
-13 24 -23 29 -24 23 -1 65 -25 76 -43 7 -10 18 -17 26 -14 7 3 16 -2 19 -11
4 -11 13 -14 30 -10 17 4 26 1 30 -10 4 -11 13 -14 25 -11 19 6 59 -12 72 -32
5 -9 22 -11 52 -6 35 4 46 2 50 -9 5 -12 17 -14 50 -10 33 3 46 1 50 -10 4
-11 30 -13 136 -10 l131 4 -4 -321 c-2 -266 -1 -322 11 -326 9 -4 12 -16 8
-39 -4 -25 -1 -36 10 -40 10 -4 13 -14 9 -30 -4 -17 -1 -26 10 -30 9 -3 14
-13 11 -20 -3 -8 1 -17 10 -20 8 -4 13 -13 10 -20 -3 -9 5 -21 19 -31 14 -9
24 -21 23 -28 -3 -16 163 -182 179 -179 7 2 15 -4 18 -12 3 -9 10 -14 14 -11
4 3 33 -8 64 -24 30 -16 65 -31 78 -33 l23 -3 1 -369 c1 -271 4 -370 13 -375
6 -4 9 -15 5 -24 -4 -12 8 -30 42 -62 45 -40 53 -44 102 -45 63 0 64 3 26 111
-23 65 -26 86 -22 176 2 56 7 105 12 110 4 4 16 -3 27 -17 11 -14 44 -53 75
-87 96 -108 62 -103 759 -103 703 0 655 -7 773 114 40 41 72 79 72 85 0 24 18
9 24 -20 15 -75 6 -187 -19 -255 -14 -36 -25 -77 -25 -90 0 -22 4 -24 53 -24
48 1 56 5 101 45 34 32 46 50 42 62 -4 9 -1 20 5 24 9 5 12 104 13 375 l1 369
23 3 c13 2 48 17 78 33 31 16 60 27 64 24 4 -3 11 2 14 11 3 8 11 14 18 12 16
-3 182 163 179 179 -1 7 9 19 23 28 14 10 22 22 19 31 -3 7 2 16 10 20 9 3 13
12 10 20 -3 7 2 17 11 20 11 4 14 13 10 30 -4 16 -1 26 9 30 11 4 14 15 10 40
-4 23 -1 35 8 39 12 4 13 60 11 326 l-4 322 131 -5 c108 -4 131 -2 136 10 4
11 16 13 49 9 35 -5 45 -3 50 10 5 12 16 14 52 9 35 -4 46 -2 51 10 3 8 11 13
18 10 8 -3 16 2 19 11 4 10 14 13 31 9 14 -4 25 -2 25 3 0 15 62 42 81 36 12
-4 22 1 29 15 10 19 51 43 75 44 6 1 18 11 28 24 11 12 24 21 31 20 6 -2 29
16 50 40 22 23 43 41 48 40 12 -4 142 124 140 138 -1 6 7 19 18 29 11 10 20
24 20 31 0 7 15 25 33 40 17 15 31 33 29 41 -2 7 4 16 12 19 9 3 14 9 11 14
-6 10 44 110 56 110 4 0 6 7 3 15 -4 8 1 17 10 21 10 4 14 13 11 23 -6 20 21
81 36 81 6 0 8 8 5 18 -7 21 20 82 35 82 6 0 8 8 5 18 -7 21 20 82 35 82 6 0
8 8 5 18 -7 21 20 82 35 82 6 0 8 8 5 18 -7 20 20 82 35 82 5 0 7 11 3 25 -4
18 -1 27 10 31 10 4 14 13 11 23 -6 20 21 81 36 81 6 0 8 8 5 18 -7 21 20 82
35 82 6 0 8 8 5 18 -7 21 20 82 35 82 6 0 8 8 5 18 -7 21 20 82 35 82 6 0 8 8
5 18 -7 20 20 82 35 82 5 0 7 11 3 25 -4 18 -1 27 10 31 10 4 14 13 11 23 -6
20 21 81 36 81 6 0 8 8 5 18 -7 21 20 82 35 82 6 0 8 8 5 18 -7 21 20 82 35
82 6 0 8 8 5 18 -7 21 20 82 35 82 6 0 8 8 5 18 -7 20 20 82 35 82 5 0 7 11 3
25 -4 18 -1 27 10 31 10 4 14 13 11 23 -6 20 21 81 36 81 6 0 8 8 5 18 -7 20
20 82 35 82 5 0 7 11 3 25 -4 18 -1 27 10 31 11 4 14 13 10 30 -4 16 -1 26 9
30 11 4 14 15 10 40 -4 25 -2 35 10 40 13 4 14 18 10 80 -5 62 -3 74 11 80 23
9 23 129 0 138 -14 5 -16 17 -11 70 5 53 3 65 -10 70 -12 5 -14 15 -10 40 4
25 1 36 -10 40 -10 4 -13 14 -9 31 4 14 2 25 -3 25 -15 0 -42 61 -36 81 3 10
-1 19 -11 23 -9 3 -14 12 -11 19 3 8 -4 19 -14 26 -19 11 -42 53 -44 77 0 6
-15 24 -33 39 -18 15 -31 32 -30 37 2 6 -29 42 -69 81 -41 39 -72 75 -70 80 1
5 -35 45 -80 90 -46 44 -82 85 -80 90 1 5 -35 45 -80 90 -46 44 -82 85 -80 90
1 5 -35 45 -80 90 -46 44 -82 85 -80 90 1 5 -35 45 -80 90 -46 44 -82 85 -80
90 1 5 -35 45 -80 90 -46 44 -82 85 -80 90 1 5 -39 50 -90 100 -52 50 -92 95
-90 100 1 5 -35 45 -80 90 -46 44 -82 85 -81 89 4 10 -183 202 -197 203 -26 3
-65 26 -75 45 -6 12 -18 19 -25 16 -7 -2 -16 2 -19 10 -4 11 -15 13 -41 8 -26
-5 -36 -2 -41 9 -4 11 -15 14 -40 10 -25 -4 -35 -2 -40 11 -9 23 -169 24 -178
0 -4 -11 -17 -15 -46 -13 -22 2 -45 -2 -52 -9 -7 -7 -19 -12 -28 -12 -21 0
-70 -23 -70 -32 0 -5 -7 -8 -15 -8 -13 0 -15 105 -15 886 l0 887 110 -5 c89
-4 110 -2 115 10 4 11 16 13 49 9 35 -5 45 -3 50 9 4 12 13 14 31 10 18 -5 27
-2 32 9 3 9 11 14 18 11 8 -3 16 2 19 10 3 9 10 13 15 10 12 -8 173 153 165
165 -3 5 1 12 10 15 8 3 12 12 9 20 -3 7 2 16 10 20 9 3 13 12 10 20 -3 7 2
17 11 20 11 4 15 13 10 26 -4 12 -1 24 7 29 20 12 21 259 1 266 -8 4 -11 14
-8 28 4 16 1 25 -10 29 -9 3 -14 13 -11 20 3 8 -1 17 -10 20 -8 4 -13 13 -10
20 3 8 -1 17 -9 20 -9 3 -13 10 -9 16 5 9 -132 150 -139 143 -2 -2 -29 10 -61
27 -31 16 -68 30 -81 30 -15 0 -24 6 -24 15 0 11 -12 15 -50 15 -42 0 -50 -3
-50 -18 0 -33 63 -115 161 -210 90 -87 142 -162 125 -180 -4 -4 -21 9 -36 28
-55 67 -113 118 -169 146 l-56 29 -1420 0 -1420 0 -55 -29 c-32 -17 -85 -60
-127 -104 -40 -42 -75 -73 -79 -69 -18 18 37 98 132 192 94 92 144 161 144
200 0 11 -11 15 -45 15 -33 0 -45 -4 -45 -15z m2972 -392 c47 -46 48 -49 48
-107 0 -58 -2 -62 -47 -108 -27 -27 -56 -48 -68 -48 -12 0 -26 -5 -32 -11 -8
-8 -73 -10 -222 -7 -195 4 -212 3 -228 -14 -9 -10 -22 -18 -29 -18 -17 0 -48
-65 -39 -81 4 -6 2 -15 -5 -19 -10 -6 -13 -89 -11 -393 l2 -384 -95 -48 c-57
-28 -104 -45 -116 -42 -10 3 -24 -1 -31 -9 -17 -20 -197 -20 -205 0 -4 10 -15
13 -40 9 -25 -4 -35 -2 -40 11 -4 11 -13 14 -30 10 -26 -7 -94 20 -94 37 0 6
-8 8 -18 5 -21 -7 -82 20 -82 35 0 6 -8 8 -18 5 -20 -7 -82 20 -82 34 0 5 -7
7 -15 4 -8 -4 -17 1 -21 10 -4 11 -13 14 -30 10 -17 -4 -26 -1 -30 10 -4 11
-13 14 -25 11 -19 -6 -59 12 -72 32 -5 9 -22 11 -52 6 -35 -4 -46 -2 -51 10
-4 11 -14 14 -40 10 -24 -4 -35 -1 -39 9 -5 12 -23 14 -100 10 -81 -4 -95 -2
-101 12 -8 22 -109 23 -118 1 -4 -11 -23 -15 -77 -15 l-71 0 3 301 c3 231 0
302 -9 308 -7 4 -10 15 -6 25 5 13 -7 31 -40 65 l-47 48 -210 -5 c-149 -3
-214 -1 -222 7 -6 6 -20 11 -31 11 -11 0 -42 21 -68 47 -47 46 -48 49 -48 107
0 58 2 62 47 108 l47 48 1430 0 1430 0 48 -47z m-3058 -312 c36 -40 66 -77 66
-82 0 -35 -104 31 -132 84 -18 34 -24 81 -9 75 5 -1 39 -36 75 -77z m3246 53
c0 -44 -125 -162 -148 -140 -3 4 17 30 44 59 28 28 58 64 67 80 22 34 37 35
37 1z m-2733 -201 c48 -23 67 -69 60 -151 -3 -35 -8 -66 -12 -70 -4 -4 -19 9
-33 28 -15 19 -56 65 -91 102 -67 71 -73 93 -24 101 54 8 65 7 100 -10z m2238
8 c18 -4 30 -13 30 -22 0 -9 -30 -49 -67 -90 -38 -41 -77 -85 -87 -99 -11 -14
-22 -22 -26 -18 -14 13 -17 125 -6 161 22 66 69 87 156 68z m-2158 -548 c23
-34 95 -108 151 -154 l44 -35 -94 -96 c-51 -53 -100 -107 -109 -120 -10 -12
-21 -19 -25 -15 -11 11 -18 344 -9 404 7 50 18 54 42 16z m2017 -204 c3 -17 6
-114 6 -214 0 -182 -5 -245 -21 -245 -4 0 -11 9 -14 20 -11 35 -147 160 -197
182 -27 11 -48 23 -48 27 0 4 31 33 69 65 38 33 95 90 126 128 31 37 60 68 64
68 5 0 11 -14 15 -31z m-1629 -162 c4 -9 26 -11 80 -9 60 3 76 1 81 -11 4 -11
15 -14 45 -10 28 4 45 1 58 -11 9 -9 20 -13 24 -10 9 9 77 -24 77 -38 0 -5 8
-7 17 -4 18 7 123 -39 123 -54 0 -5 7 -7 15 -4 8 4 17 -1 21 -10 4 -11 13 -14
30 -10 17 4 26 1 30 -10 4 -10 13 -14 23 -11 19 6 81 -21 81 -35 0 -5 16 -6
35 -3 26 4 36 2 41 -10 4 -11 14 -14 40 -10 25 4 35 2 40 -10 5 -13 16 -15 56
-10 38 5 54 2 62 -8 16 -20 246 -20 262 0 7 8 21 12 37 9 16 -3 31 0 38 8 6 8
26 14 45 14 18 0 36 5 39 10 3 6 15 10 26 10 19 0 19 -24 19 -1710 0 -1471 -2
-1711 -14 -1716 -10 -4 -13 -15 -9 -40 4 -25 2 -35 -11 -40 -11 -4 -14 -13
-10 -30 4 -17 -7 -52 -40 -118 -26 -52 -54 -100 -62 -106 -8 -7 -14 -18 -14
-24 0 -14 -186 -196 -218 -214 -13 -7 -26 -11 -30 -8 -3 3 -11 -3 -19 -13 -15
-23 -121 -77 -130 -67 -4 3 -14 -1 -24 -10 -13 -11 -28 -15 -48 -11 -21 5 -31
2 -35 -10 -5 -12 -19 -15 -71 -11 -47 3 -66 0 -69 -9 -7 -17 -75 -17 -82 0 -3
9 -22 12 -69 9 -52 -4 -66 -1 -71 11 -4 12 -14 15 -35 10 -20 -4 -35 0 -48 11
-10 9 -20 13 -24 10 -9 -10 -115 44 -130 67 -8 10 -16 16 -19 13 -4 -3 -17 1
-30 8 -32 18 -218 200 -218 214 0 6 -6 17 -14 24 -8 6 -36 54 -62 106 -33 66
-44 101 -40 118 4 17 1 26 -10 30 -13 5 -15 15 -11 40 4 25 1 36 -9 40 -12 5
-14 260 -14 1826 l0 1821 65 -2 c40 -1 70 2 77 9 16 16 97 15 103 -1z m-411
-998 c8 -41 8 -439 0 -518 -7 -63 -18 -78 -29 -38 -25 85 -88 181 -187 282
-43 44 -76 85 -74 91 3 7 20 15 38 19 18 4 44 13 58 20 40 21 120 95 146 137
29 46 40 48 48 7z m2063 4 c27 -41 117 -129 150 -146 15 -8 43 -18 61 -22 18
-4 35 -12 38 -18 2 -7 -39 -56 -91 -110 -69 -72 -103 -117 -129 -170 -19 -40
-36 -81 -38 -91 -2 -11 -8 -21 -14 -23 -17 -6 -24 94 -24 332 0 275 7 310 47
248z m-2847 -261 c0 -13 -119 -126 -126 -119 -4 3 10 25 30 47 20 22 36 43 36
48 0 4 10 12 23 18 28 15 37 16 37 6z m3625 -12 c10 -11 15 -23 12 -27 -8 -7
-47 25 -47 39 0 14 16 9 35 -12z m-3270 -50 c3 -5 15 -10 26 -10 28 0 57 -19
117 -75 59 -55 82 -94 82 -136 0 -15 5 -31 10 -34 6 -3 10 -21 10 -40 0 -19
-4 -37 -10 -40 -5 -3 -10 -19 -10 -34 0 -44 -24 -82 -98 -153 -37 -36 -66 -70
-65 -75 2 -5 -75 -86 -170 -180 -95 -95 -171 -176 -170 -180 2 -5 -75 -86
-170 -180 -95 -95 -171 -176 -169 -181 1 -4 -26 -36 -61 -69 -34 -33 -61 -65
-59 -71 1 -5 -12 -22 -30 -37 -18 -15 -33 -33 -33 -39 0 -6 -15 -41 -33 -78
l-33 -68 -400 0 c-348 0 -399 2 -399 15 0 8 5 15 10 15 6 0 10 6 10 13 0 7 27
39 60 72 33 33 60 64 60 70 0 6 37 48 83 92 45 45 81 85 80 90 -2 5 34 46 80
90 45 45 81 85 80 90 -2 5 34 46 80 90 45 45 81 85 80 90 -2 5 34 46 80 90 45
45 81 85 80 90 -2 5 34 46 80 90 45 45 81 85 80 90 -2 5 34 46 80 90 45 45 81
85 80 90 -2 5 39 50 90 101 52 50 92 94 89 97 -9 8 159 174 192 190 16 8 37
15 47 15 10 0 21 5 24 10 3 6 30 10 60 10 30 0 57 -4 60 -10z m2980 0 c3 -5
21 -10 39 -10 20 0 40 -8 51 -20 10 -11 23 -20 29 -20 15 0 172 -158 164 -165
-3 -3 33 -42 79 -87 46 -45 82 -86 80 -91 -1 -5 39 -50 90 -100 52 -50 92 -95
90 -100 -1 -5 35 -45 80 -90 46 -44 82 -85 80 -90 -1 -5 35 -45 80 -90 46 -44
82 -85 80 -90 -1 -5 35 -45 80 -90 46 -44 82 -85 80 -90 -1 -5 35 -45 80 -90
46 -44 82 -85 80 -90 -1 -5 35 -45 80 -90 46 -44 83 -86 83 -92 0 -6 27 -37
60 -70 33 -33 60 -65 60 -72 0 -7 5 -13 10 -13 6 0 10 -7 10 -15 0 -13 -51
-15 -399 -15 l-400 0 -33 68 c-18 37 -33 72 -33 78 0 6 -15 24 -33 39 -18 15
-31 32 -30 39 1 6 -30 42 -70 80 -40 38 -71 74 -70 78 2 5 -74 86 -169 181
-95 94 -172 175 -170 180 1 4 -75 85 -170 180 -95 94 -172 176 -170 180 1 5
-23 34 -55 65 -64 60 -88 100 -88 143 0 15 -4 31 -10 34 -5 3 -10 21 -10 40 0
19 5 37 10 40 6 3 10 19 10 34 0 42 23 81 82 136 64 61 89 75 127 75 17 0 33
5 36 10 3 6 21 10 40 10 19 0 37 -4 40 -10z m383 -49 c3 -8 -1 -12 -9 -9 -7 2
-15 10 -17 17 -3 8 1 12 9 9 7 -2 15 -10 17 -17z m-3878 -50 c0 -12 -20 -25
-27 -18 -7 7 6 27 18 27 5 0 9 -4 9 -9z m3958 -30 c3 -8 -1 -12 -9 -9 -7 2
-15 10 -17 17 -3 8 1 12 9 9 7 -2 15 -10 17 -17z m-4058 -90 c0 -12 -20 -25
-27 -18 -7 7 6 27 18 27 5 0 9 -4 9 -9z m4138 -10 c3 -8 -1 -12 -9 -9 -7 2
-15 10 -17 17 -3 8 1 12 9 9 7 -2 15 -10 17 -17z m67 -61 c10 -11 15 -23 12
-27 -8 -7 -47 25 -47 39 0 14 16 9 35 -12z m-4305 -29 c0 -12 -20 -25 -27 -18
-7 7 6 27 18 27 5 0 9 -4 9 -9z m1145 -93 c8 -103 3 -594 -7 -603 -4 -4 -43
29 -87 73 -94 95 -122 106 -196 73 -52 -23 -159 -97 -189 -130 -23 -25 -36
-27 -36 -6 0 9 36 54 81 102 161 171 346 405 364 461 14 48 46 112 55 112 4 0
11 -37 15 -82z m2065 36 c11 -26 20 -52 20 -58 0 -34 193 -287 327 -428 72
-76 99 -118 76 -118 -3 0 -29 17 -58 39 -68 52 -148 91 -184 91 -37 0 -126
-71 -161 -128 -14 -23 -31 -42 -38 -42 -26 0 -32 57 -32 309 0 263 6 381 21
381 4 0 17 -21 29 -46z m1195 -34 c10 -11 15 -23 12 -27 -8 -7 -47 25 -47 39
0 14 16 9 35 -12z m-4485 -9 c0 -12 -20 -25 -27 -18 -7 7 6 27 18 27 5 0 9 -4
9 -9z m-60 -59 c0 -14 -59 -66 -67 -59 -3 4 6 21 22 37 28 30 45 38 45 22z
m4625 -12 c10 -11 15 -23 12 -27 -8 -7 -47 25 -47 39 0 14 16 9 35 -12z
m-4725 -109 c0 -12 -20 -25 -27 -18 -7 7 6 27 18 27 5 0 9 -4 9 -9z m4818 -10
c3 -8 -1 -12 -9 -9 -7 2 -15 10 -17 17 -3 8 1 12 9 9 7 -2 15 -10 17 -17z
m-4878 -49 c0 -14 -59 -66 -67 -59 -3 4 6 21 22 37 28 30 45 38 45 22z m4945
-12 c10 -11 15 -23 12 -27 -8 -7 -47 25 -47 39 0 14 16 9 35 -12z m-5045 -109
c0 -12 -20 -25 -27 -18 -7 7 6 27 18 27 5 0 9 -4 9 -9z m5138 -10 c3 -8 -1
-12 -9 -9 -7 2 -15 10 -17 17 -3 8 1 12 9 9 7 -2 15 -10 17 -17z m-5198 -49
c0 -14 -59 -66 -67 -59 -3 4 6 21 22 37 28 30 45 38 45 22z m5265 -12 c10 -11
15 -23 12 -27 -8 -7 -47 25 -47 39 0 14 16 9 35 -12z m-5365 -109 c0 -12 -20
-25 -27 -18 -7 7 6 27 18 27 5 0 9 -4 9 -9z m1518 -711 c-3 -604 -1 -721 11
-725 10 -4 12 -18 9 -50 -4 -33 -2 -45 9 -50 11 -4 14 -14 9 -39 -5 -26 -3
-35 10 -40 9 -3 14 -13 11 -20 -3 -8 1 -17 10 -20 10 -4 13 -14 9 -30 -4 -17
-1 -26 10 -30 9 -4 14 -13 10 -21 -3 -8 -1 -15 3 -15 12 0 62 -100 56 -110 -3
-5 2 -11 11 -14 8 -3 14 -12 12 -19 -2 -8 12 -26 30 -42 18 -15 32 -32 30 -39
-2 -14 208 -222 220 -218 5 1 23 -12 39 -31 16 -18 34 -32 40 -30 6 2 19 -7
30 -20 10 -13 24 -22 31 -19 6 2 15 -3 18 -12 3 -8 12 -12 20 -9 7 3 16 -2 20
-10 3 -9 12 -13 20 -10 7 3 17 -2 20 -11 4 -10 13 -14 23 -11 19 6 81 -21 81
-35 0 -5 16 -6 35 -3 26 4 36 2 41 -10 4 -11 14 -14 40 -10 25 4 35 1 40 -10
4 -12 17 -14 66 -9 46 4 64 2 72 -9 16 -21 186 -21 202 0 8 11 26 13 72 9 49
-5 62 -3 66 9 5 11 15 14 40 10 26 -4 36 -1 40 10 5 12 15 14 40 10 25 -4 36
-1 40 10 4 8 13 13 20 10 8 -3 17 1 20 10 4 10 14 13 30 9 17 -4 26 -1 30 10
3 9 13 14 20 11 8 -3 17 1 20 10 4 8 13 13 20 10 8 -3 17 1 20 9 3 9 12 14 18
12 7 -3 21 6 31 19 11 13 24 22 30 20 6 -2 24 12 40 30 16 18 34 32 41 31 15
-2 220 204 218 219 -2 6 8 20 21 30 13 10 22 23 20 30 -2 6 7 19 20 30 13 10
22 24 19 31 -2 6 3 15 12 18 9 3 14 10 11 14 -6 10 24 70 35 70 5 0 7 7 4 15
-4 8 1 17 10 21 11 4 14 13 10 30 -4 16 -1 26 9 30 9 3 13 12 10 20 -3 7 2 17
11 20 13 5 15 14 10 40 -5 25 -2 35 9 39 11 5 13 17 9 50 -3 32 -1 46 9 50 12
4 14 121 11 725 -2 409 1 720 6 720 12 0 257 -249 257 -261 0 -6 78 -87 173
-182 95 -94 171 -176 169 -181 -2 -5 21 -31 50 -59 29 -27 53 -55 53 -62 0 -7
7 -18 15 -25 24 -20 88 -158 82 -180 -3 -10 2 -25 10 -31 10 -9 13 -28 12 -61
-2 -27 2 -53 9 -60 7 -7 12 -26 12 -43 0 -17 -5 -36 -12 -43 -7 -7 -11 -33 -9
-60 1 -33 -2 -52 -12 -61 -8 -6 -13 -21 -10 -31 3 -12 -1 -22 -11 -26 -11 -4
-14 -13 -10 -30 4 -17 1 -26 -10 -30 -11 -4 -14 -13 -10 -30 4 -17 1 -26 -10
-30 -11 -4 -14 -13 -10 -30 4 -17 1 -26 -10 -30 -11 -4 -14 -13 -10 -30 4 -17
1 -26 -10 -30 -11 -4 -14 -13 -10 -30 4 -17 1 -26 -10 -30 -11 -4 -14 -13 -10
-30 4 -17 1 -26 -10 -30 -11 -4 -14 -13 -10 -30 4 -17 1 -26 -10 -30 -11 -4
-14 -13 -10 -30 4 -17 1 -26 -10 -30 -11 -4 -14 -13 -10 -30 4 -17 1 -26 -10
-30 -11 -4 -14 -13 -10 -30 4 -17 1 -26 -10 -30 -11 -4 -14 -13 -10 -30 4 -17
1 -26 -10 -30 -11 -4 -14 -13 -10 -30 4 -17 1 -26 -10 -30 -11 -4 -14 -13 -10
-30 4 -17 1 -26 -11 -30 -9 -4 -14 -13 -10 -22 6 -17 -77 -193 -101 -212 -8
-7 -14 -17 -14 -23 0 -6 -16 -28 -36 -48 -20 -20 -41 -48 -48 -60 -6 -13 -22
-29 -35 -35 -12 -7 -39 -27 -59 -46 -21 -19 -54 -42 -74 -52 -20 -9 -40 -21
-43 -26 -10 -17 -69 -40 -87 -34 -10 3 -18 1 -18 -5 0 -19 -69 -44 -104 -38
-25 4 -36 1 -40 -9 -8 -21 -2114 -21 -2122 0 -4 10 -15 13 -40 9 -35 -6 -104
19 -104 38 0 6 -8 8 -18 5 -22 -7 -77 18 -95 45 -8 10 -16 16 -19 13 -9 -8
-47 16 -90 55 -20 18 -47 38 -59 45 -13 6 -29 22 -35 35 -7 12 -28 40 -48 60
-20 20 -36 42 -36 48 0 6 -6 16 -14 23 -24 19 -107 195 -101 212 4 9 -1 18
-10 22 -12 4 -15 13 -11 30 4 17 1 26 -10 30 -11 4 -14 13 -10 30 4 17 1 26
-10 30 -11 4 -14 13 -10 30 4 17 1 26 -10 30 -11 4 -14 13 -10 30 4 17 1 26
-10 30 -11 4 -14 13 -10 30 4 17 1 26 -10 30 -11 4 -14 13 -10 30 4 17 1 26
-10 30 -11 4 -14 13 -10 30 4 17 1 26 -10 30 -11 4 -14 13 -10 30 4 17 1 26
-10 30 -11 4 -14 13 -10 30 4 17 1 26 -10 30 -11 4 -14 13 -10 30 4 17 1 26
-10 30 -11 4 -14 13 -10 30 4 17 1 26 -10 30 -11 4 -14 13 -10 30 4 17 1 26
-10 30 -11 4 -14 13 -10 30 4 17 1 26 -10 30 -10 4 -14 14 -11 26 3 10 -2 25
-10 31 -10 9 -13 28 -12 61 2 27 -2 53 -9 60 -7 7 -12 26 -12 43 0 17 5 36 12
43 7 7 11 33 9 60 -2 33 2 52 13 61 8 7 12 19 9 27 -3 8 2 23 11 33 9 10 13
20 10 24 -8 8 41 111 61 127 8 7 15 18 15 24 0 7 18 30 40 51 22 21 40 44 40
50 0 6 78 88 173 183 96 95 171 174 168 177 -7 7 261 282 277 284 10 1 12
-136 10 -719z m3940 701 c3 -8 -1 -12 -9 -9 -7 2 -15 10 -17 17 -3 8 1 12 9 9
7 -2 15 -10 17 -17z m-1213 -41 c10 -11 15 -23 12 -27 -8 -7 -47 25 -47 39 0
14 16 9 35 -12z m-4305 -8 c0 -14 -59 -66 -67 -59 -3 4 6 21 22 37 28 30 45
38 45 22z m5585 -12 c10 -11 15 -23 12 -27 -8 -7 -47 25 -47 39 0 14 16 9 35
-12z m-4345 -9 c0 -12 -20 -25 -27 -18 -7 7 6 27 18 27 5 0 9 -4 9 -9z m-1340
-100 c0 -12 -20 -25 -27 -18 -7 7 6 27 18 27 5 0 9 -4 9 -9z m1240 0 c0 -12
-20 -25 -27 -18 -7 7 6 27 18 27 5 0 9 -4 9 -9z m4538 -10 c3 -8 -1 -12 -9 -9
-7 2 -15 10 -17 17 -3 8 1 12 9 9 7 -2 15 -10 17 -17z m-5838 -49 c0 -14 -59
-66 -67 -59 -3 4 6 21 22 37 28 30 45 38 45 22z m5905 -12 c10 -11 15 -23 12
-27 -8 -7 -47 25 -47 39 0 14 16 9 35 -12z m-5985 -76 c0 -9 -15 -34 -32 -55
-74 -87 -93 -114 -109 -149 -9 -21 -22 -41 -28 -44 -17 -11 -33 -85 -26 -118
4 -16 36 -63 71 -103 35 -40 64 -79 64 -87 0 -8 -31 -23 -77 -37 -66 -20 -85
-31 -138 -82 -34 -33 -70 -77 -80 -99 -25 -57 -42 -51 -51 16 -9 78 1 165 33
259 47 143 115 245 275 411 43 45 78 87 78 93 0 6 5 11 10 11 6 0 10 -7 10
-16z m6126 -86 c157 -162 229 -269 279 -417 29 -87 40 -178 31 -255 -9 -66
-24 -71 -50 -16 -11 22 -47 66 -81 99 -52 51 -72 62 -138 82 -45 14 -77 29
-77 37 0 7 27 45 61 84 92 107 94 119 32 243 -34 68 -50 91 -120 174 -18 21
-33 41 -33 45 0 17 22 -1 96 -76z m-1228 -17 c3 -8 -1 -12 -9 -9 -7 2 -15 10
-17 17 -3 8 1 12 9 9 7 -2 15 -10 17 -17z m-3758 -10 c0 -12 -20 -25 -27 -18
-7 7 6 27 18 27 5 0 9 -4 9 -9z m3880 -115 c0 -7 9 -21 20 -31 25 -22 26 -35
2 -35 -20 0 -58 63 -47 79 8 14 25 5 25 -13z m-4000 -25 c0 -5 -7 -14 -15 -21
-22 -19 -103 -183 -127 -258 -11 -37 -28 -98 -38 -136 -20 -85 -37 -99 -76
-65 -67 57 -136 139 -130 154 3 9 26 25 51 36 24 11 73 42 107 70 62 49 158
150 158 165 0 11 52 64 62 64 4 0 8 -4 8 -9z m4120 -129 c74 -77 134 -125 200
-159 30 -15 56 -35 57 -43 2 -8 -33 -53 -77 -100 -79 -83 -80 -84 -98 -65 -10
11 -24 45 -31 75 -25 109 -70 239 -112 322 -24 47 -2 36 61 -30z m-4502 -492
c-4 -107 -2 -130 10 -135 10 -4 13 -15 9 -39 -4 -26 -1 -36 10 -40 12 -5 14
-15 10 -40 -4 -25 -1 -36 10 -40 10 -4 13 -14 9 -30 -4 -17 -1 -26 10 -30 11
-4 14 -13 10 -30 -4 -17 -1 -26 10 -30 11 -4 14 -13 10 -30 -4 -17 -1 -26 10
-30 11 -4 14 -13 10 -30 -4 -17 -1 -26 10 -30 11 -4 14 -13 10 -30 -4 -17 -1
-26 10 -30 11 -4 14 -13 10 -30 -4 -17 -1 -26 10 -30 11 -4 14 -13 10 -30 -4
-17 -1 -26 10 -30 11 -4 14 -13 10 -30 -4 -17 -1 -26 10 -30 11 -4 14 -13 10
-30 -4 -17 -1 -26 10 -30 11 -4 14 -13 10 -30 -4 -17 -1 -26 10 -30 11 -4 14
-13 10 -30 -4 -17 -1 -26 10 -30 11 -4 14 -13 10 -30 -4 -17 -1 -26 10 -30 11
-4 14 -13 10 -31 -4 -14 -2 -25 3 -25 15 0 42 -61 36 -81 -3 -10 1 -19 11 -23
9 -4 14 -13 10 -21 -3 -8 -1 -15 3 -15 12 0 62 -100 56 -110 -3 -5 2 -11 11
-14 8 -3 14 -12 12 -19 -2 -8 12 -26 30 -42 18 -15 31 -32 30 -37 -2 -6 25
-38 59 -71 72 -69 77 -90 33 -132 -16 -16 -30 -34 -30 -40 0 -7 -9 -20 -20
-30 -11 -10 -20 -23 -20 -30 0 -7 -9 -20 -20 -30 -11 -10 -20 -23 -20 -30 0
-7 -9 -20 -20 -30 -11 -10 -20 -23 -20 -30 0 -7 -9 -20 -20 -30 -11 -10 -20
-23 -20 -30 0 -7 -9 -20 -20 -30 -11 -10 -20 -23 -20 -30 0 -7 -9 -20 -20 -30
-11 -10 -20 -23 -20 -30 0 -7 -9 -20 -20 -30 -11 -10 -20 -23 -20 -30 0 -6
-13 -24 -30 -40 -16 -16 -30 -34 -30 -40 0 -7 -9 -20 -20 -30 -11 -10 -20 -23
-20 -30 0 -7 -9 -20 -20 -30 -11 -10 -20 -26 -20 -37 0 -13 -7 -18 -25 -18
-17 0 -25 5 -25 18 0 10 -16 33 -35 52 -43 41 -149 249 -139 273 3 9 1 17 -4
17 -16 0 -43 61 -36 82 3 10 1 18 -5 18 -15 0 -42 61 -35 82 3 10 1 18 -5 18
-15 0 -42 61 -36 81 3 10 -1 19 -11 23 -11 4 -14 13 -10 31 4 14 2 25 -3 25
-15 0 -42 62 -35 82 3 10 1 18 -5 18 -15 0 -42 61 -35 82 3 10 1 18 -5 18 -15
0 -42 61 -35 82 3 10 1 18 -5 18 -15 0 -42 61 -35 82 3 10 1 18 -5 18 -15 0
-42 61 -36 81 3 10 -1 19 -11 23 -11 4 -14 13 -10 31 4 14 2 25 -3 25 -15 0
-42 62 -35 82 3 10 1 18 -5 18 -15 0 -42 61 -35 82 3 10 1 18 -5 18 -15 0 -42
61 -35 82 3 10 1 18 -5 18 -15 0 -42 61 -35 82 3 10 1 18 -5 18 -15 0 -42 61
-36 81 3 10 -1 19 -11 23 -11 4 -14 13 -10 31 4 14 2 25 -3 25 -15 0 -42 62
-35 82 3 10 1 18 -5 18 -15 0 -42 61 -35 82 3 10 1 18 -5 18 -15 0 -42 61 -36
81 3 10 -1 19 -11 23 -10 4 -14 13 -11 26 3 10 -2 25 -10 31 -8 7 -12 21 -10
30 3 10 -1 23 -9 30 -10 8 -14 34 -14 85 0 43 -4 74 -10 74 -5 0 -10 7 -10 15
0 13 55 15 436 15 l437 0 -5 -130z m5622 115 c0 -8 -4 -15 -10 -15 -6 0 -10
-31 -10 -74 0 -51 -4 -77 -14 -85 -8 -7 -12 -20 -9 -30 2 -9 -2 -23 -10 -30
-8 -6 -13 -21 -10 -31 3 -13 -1 -22 -11 -26 -10 -4 -14 -13 -11 -23 6 -20 -21
-81 -36 -81 -6 0 -8 -8 -5 -18 7 -21 -20 -82 -35 -82 -6 0 -8 -8 -5 -18 7 -20
-20 -82 -35 -82 -5 0 -7 -11 -3 -25 4 -18 1 -27 -10 -31 -10 -4 -14 -13 -11
-23 6 -20 -21 -81 -36 -81 -6 0 -8 -8 -5 -18 7 -21 -20 -82 -35 -82 -6 0 -8
-8 -5 -18 7 -21 -20 -82 -35 -82 -6 0 -8 -8 -5 -18 7 -21 -20 -82 -35 -82 -6
0 -8 -8 -5 -18 7 -20 -20 -82 -35 -82 -5 0 -7 -11 -3 -25 4 -18 1 -27 -10 -31
-10 -4 -14 -13 -11 -23 6 -20 -21 -81 -36 -81 -6 0 -8 -8 -5 -18 7 -21 -20
-82 -35 -82 -6 0 -8 -8 -5 -18 7 -21 -20 -82 -35 -82 -6 0 -8 -8 -5 -18 7 -21
-20 -82 -35 -82 -6 0 -8 -8 -5 -18 7 -21 -20 -82 -35 -82 -6 0 -8 -8 -5 -18 7
-20 -20 -82 -35 -82 -5 0 -7 -11 -3 -25 4 -18 1 -27 -10 -31 -10 -4 -14 -13
-11 -23 6 -20 -21 -81 -36 -81 -6 0 -8 -8 -5 -18 7 -21 -20 -82 -36 -82 -5 0
-7 -8 -4 -17 10 -24 -96 -232 -139 -273 -19 -19 -35 -42 -35 -52 0 -13 -8 -18
-25 -18 -18 0 -25 5 -25 18 0 11 -9 27 -20 37 -11 10 -20 23 -20 30 0 7 -9 20
-20 30 -11 10 -20 23 -20 30 0 6 -13 24 -30 40 -16 16 -30 34 -30 40 0 7 -9
20 -20 30 -11 10 -20 23 -20 30 0 7 -9 20 -20 30 -11 10 -19 23 -17 29 2 6 -7
19 -20 29 -13 11 -22 24 -20 30 2 7 -7 20 -20 30 -13 11 -22 24 -20 30 2 7 -7
20 -20 30 -13 10 -23 24 -23 31 0 7 -9 21 -20 31 -11 10 -20 23 -20 30 0 7 -9
20 -20 30 -11 10 -20 23 -20 30 0 6 -13 24 -30 40 -44 42 -39 63 33 132 34 33
61 65 59 71 -1 5 12 22 30 37 18 16 32 34 30 42 -2 7 4 16 12 19 9 3 14 9 11
14 -6 10 44 110 56 110 4 0 6 7 3 15 -4 8 1 17 10 21 10 4 14 13 11 23 -6 20
21 81 36 81 5 0 7 11 3 25 -4 18 -1 27 10 31 11 4 14 13 10 30 -4 17 -1 26 10
30 11 4 14 13 10 30 -4 17 -1 26 10 30 11 4 14 13 10 30 -4 17 -1 26 10 30 11
4 14 13 10 30 -4 17 -1 26 10 30 11 4 14 13 10 30 -4 17 -1 26 10 30 11 4 14
13 10 30 -4 17 -1 26 10 30 11 4 14 13 10 30 -4 17 -1 26 10 30 11 4 14 13 10
30 -4 17 -1 26 10 30 11 4 14 13 10 30 -4 17 -1 26 10 30 11 4 14 13 10 30 -4
17 -1 26 10 30 11 4 14 13 10 30 -4 17 -1 26 10 30 11 4 14 13 10 30 -4 16 -1
26 9 30 11 4 14 15 10 40 -4 25 -2 35 10 40 11 4 14 14 10 40 -4 24 -1 35 9
39 12 5 14 28 10 135 l-5 130 437 0 c381 0 436 -2 436 -15z m-4102 -684 c3 -8
-1 -12 -9 -9 -7 2 -15 10 -17 17 -3 8 1 12 9 9 7 -2 15 -10 17 -17z m24 -38
c10 -9 18 -21 18 -27 0 -6 36 -47 80 -91 76 -76 91 -95 71 -95 -25 0 -201 198
-201 227 0 8 15 2 32 -14z m1658 -46 c0 -18 -98 -112 -107 -104 -4 4 11 26 34
50 22 23 43 50 47 60 6 19 26 14 26 -6z m-120 -126 c0 -12 -20 -25 -27 -18 -7
7 6 27 18 27 5 0 9 -4 9 -9z m-2458 -488 c10 -9 18 -21 18 -27 0 -24 271 -263
362 -319 34 -22 22 -44 -24 -44 -75 -1 -152 -47 -270 -162 -37 -36 -70 -63
-72 -60 -3 2 14 43 37 90 71 145 80 170 73 217 -5 40 -97 235 -116 247 -8 5
-40 63 -40 72 0 8 15 2 32 -14z m3538 12 c0 -7 -50 -96 -70 -125 -10 -14 -34
-58 -55 -99 -50 -100 -46 -133 28 -283 31 -62 54 -115 51 -117 -2 -3 -35 24
-72 60 -119 116 -201 164 -274 163 -56 -2 -50 25 15 72 101 73 242 193 266
225 54 73 111 127 111 104z m-3225 -545 c3 -5 14 -10 24 -10 24 0 81 -29 81
-41 0 -5 11 -7 25 -3 18 4 27 1 31 -10 4 -11 13 -14 30 -10 16 4 26 1 30 -10
5 -12 15 -14 50 -9 34 4 45 2 49 -9 5 -13 22 -15 97 -10 71 4 94 2 102 -9 16
-21 1826 -21 1842 0 8 11 31 13 102 9 75 -5 92 -3 97 10 4 11 15 13 49 9 35
-5 45 -3 50 9 4 11 14 14 30 10 17 -4 26 -1 30 10 4 10 14 14 26 11 11 -3 22
-1 25 3 8 13 66 40 86 40 10 0 21 5 24 10 11 18 22 11 39 -24 8 -18 22 -39 31
-46 8 -7 15 -18 15 -24 0 -7 14 -25 30 -41 17 -16 30 -34 30 -40 0 -7 9 -20
20 -30 11 -10 20 -23 20 -30 0 -7 9 -20 20 -30 11 -10 20 -23 20 -30 0 -7 9
-20 20 -30 11 -10 20 -23 20 -30 0 -7 9 -20 20 -30 11 -10 20 -23 20 -30 0 -7
9 -20 20 -30 11 -10 20 -23 20 -30 0 -7 9 -20 20 -30 11 -10 20 -23 20 -30 0
-7 9 -20 20 -30 11 -10 20 -23 20 -30 0 -6 14 -24 30 -40 17 -16 30 -35 30
-42 0 -7 9 -18 20 -25 29 -19 25 -38 -9 -38 -17 0 -33 -4 -36 -10 -3 -5 -17
-10 -30 -10 -13 0 -27 -5 -31 -11 -4 -7 -27 -10 -60 -7 -38 3 -55 1 -58 -9 -8
-19 -3434 -19 -3442 0 -3 10 -20 12 -58 9 -33 -3 -56 0 -60 7 -4 6 -18 11 -31
11 -13 0 -27 5 -30 10 -3 6 -19 10 -36 10 -34 0 -38 19 -9 38 11 7 20 18 20
25 0 7 14 26 30 42 17 16 30 34 30 40 0 7 9 20 20 30 11 10 20 23 20 30 0 7 9
20 20 30 11 10 20 23 20 30 0 7 9 20 20 30 11 10 20 23 20 30 0 7 9 20 20 30
11 10 20 23 20 30 0 7 9 20 20 30 11 10 20 23 20 30 0 7 9 20 20 30 11 10 20
23 20 30 0 7 9 20 20 30 11 10 20 23 20 30 0 6 14 24 30 40 17 16 30 34 30 41
0 6 7 17 15 24 9 7 23 28 31 46 17 35 28 42 39 24z m3203 -109 c3 -8 -1 -12
-9 -9 -7 2 -15 10 -17 17 -3 8 1 12 9 9 7 -2 15 -10 17 -17z m-3518 -10 c0
-12 -20 -25 -27 -18 -7 7 6 27 18 27 5 0 9 -4 9 -9z m-180 -269 c0 -11 -9 -27
-20 -37 -11 -10 -20 -24 -20 -32 0 -7 -18 -49 -40 -93 -73 -146 -71 -180 20
-288 33 -40 60 -76 60 -82 0 -12 6 -12 -65 1 -59 11 -160 56 -231 104 -102 69
-234 207 -278 292 -35 69 -17 70 59 1 125 -116 174 -134 253 -94 51 26 227
194 238 228 7 24 24 23 24 0z m3895 -1 c10 -34 195 -207 246 -231 43 -21 53
-22 88 -11 48 14 169 106 196 149 11 17 23 31 28 32 16 0 6 -50 -16 -77 -12
-15 -29 -41 -37 -57 -20 -40 -150 -167 -225 -221 -82 -58 -192 -107 -267 -120
-50 -8 -49 5 6 69 109 128 111 155 21 335 -36 71 -65 134 -65 140 0 18 18 12
25 -8z m-3182 -578 c21 -3 41 -12 44 -19 3 -8 -30 -52 -76 -101 -44 -49 -81
-96 -81 -105 0 -22 -10 -48 -19 -48 -4 0 -15 17 -24 38 -9 21 -51 75 -93 120
-80 86 -86 107 -37 115 46 7 245 7 286 0z m2720 0 c21 -3 41 -12 44 -19 3 -8
-25 -46 -62 -86 -75 -80 -105 -124 -105 -150 0 -10 -6 -18 -14 -18 -14 0 -26
21 -26 45 0 15 -22 44 -104 131 -62 68 -67 90 -19 97 46 7 245 7 286 0z m-313
-472 c0 -183 -4 -292 -10 -296 -5 -3 -10 -14 -10 -24 0 -21 -27 -78 -41 -87
-6 -3 -14 -17 -19 -30 -5 -13 -16 -24 -23 -24 -7 0 -24 -12 -38 -26 -31 -33
-84 -58 -109 -51 -10 3 -24 -1 -31 -9 -17 -21 -1791 -21 -1808 0 -7 8 -21 12
-31 9 -25 -7 -78 18 -109 51 -14 14 -31 26 -38 26 -8 0 -16 8 -20 18 -3 9 -13
25 -21 34 -8 9 -25 38 -38 64 -24 47 -24 51 -24 341 l0 293 1185 0 1185 0 0
-289z m-2455 -468 c10 -21 41 -62 69 -90 53 -55 57 -79 8 -44 -46 33 -112 125
-112 157 0 25 15 15 35 -23z m2555 -18 c0 -19 -56 -82 -65 -73 -11 10 5 48 20
48 7 0 15 9 18 20 6 23 27 27 27 5z m-80 -94 c0 -12 -20 -25 -27 -18 -7 7 6
27 18 27 5 0 9 -4 9 -9z m-2080 -131 c191 -23 195 -24 195 -41 0 -9 -31 -49
-69 -90 -37 -40 -75 -88 -84 -106 -16 -34 -42 -45 -42 -17 0 32 -52 123 -110
192 -33 40 -60 75 -60 78 0 3 17 4 38 1 20 -3 80 -10 132 -17z m1920 13 c0 -3
-21 -30 -47 -59 -74 -81 -110 -138 -118 -183 -4 -25 -12 -41 -21 -41 -8 0 -14
5 -14 11 0 14 -60 90 -123 156 -30 31 -48 57 -44 66 6 15 56 26 127 28 25 0
74 6 110 14 72 15 130 18 130 8z m-360 -458 l0 -245 -685 0 -685 0 0 245 0
245 685 0 685 0 0 -245z"/>
<path d="M4750 7685 c-7 -8 -16 -12 -22 -9 -13 8 -70 -21 -93 -48 -36 -41 -45
-67 -45 -123 0 -56 9 -82 45 -123 25 -29 77 -55 103 -50 10 2 26 -3 35 -10 10
-9 17 -10 22 -2 3 5 14 10 24 10 46 0 129 66 118 94 -3 8 1 20 9 26 22 19 16
89 -14 144 -27 50 -82 92 -108 82 -7 -3 -18 2 -24 10 -16 18 -34 18 -50 -1z"/>
<path d="M5355 7321 c-66 -39 -105 -168 -70 -237 25 -51 80 -97 109 -92 15 3
31 -1 37 -8 15 -18 34 -18 49 1 7 8 16 12 22 9 5 -3 23 1 41 9 94 45 123 151
69 251 -36 67 -70 85 -157 85 -49 0 -79 -6 -100 -18z"/>
<path d="M4862 6645 c-49 -27 -93 -79 -90 -106 1 -15 -3 -33 -10 -41 -10 -12
-10 -18 1 -27 8 -6 12 -22 10 -34 -9 -48 73 -138 113 -123 7 3 18 -2 24 -10
16 -18 54 -18 70 1 7 8 16 12 22 9 13 -8 78 25 78 40 0 7 9 21 20 31 17 15 20
31 20 100 0 81 0 81 -37 115 -21 19 -48 41 -60 48 -29 15 -131 14 -161 -3z"/>
<path d="M5430 5805 c-7 -8 -16 -12 -22 -9 -26 16 -126 -62 -115 -90 3 -8 -1
-20 -9 -26 -22 -19 -16 -89 14 -144 36 -67 70 -85 157 -85 76 0 122 19 141 57
6 12 18 30 27 40 22 24 23 117 2 158 -25 51 -80 97 -109 92 -15 -3 -31 1 -37
8 -15 18 -34 18 -49 -1z"/>
<path d="M4863 5286 c-50 -28 -106 -106 -89 -123 3 -4 -1 -14 -9 -23 -13 -15
-14 -19 -1 -29 8 -6 12 -21 9 -31 -10 -39 34 -104 94 -137 31 -18 123 -16 159
2 65 32 94 86 93 172 -1 85 -19 119 -85 155 -54 29 -132 35 -171 14z"/>
</g>
</svg>
